Coordinates
version=1
nRows=14
nColumns=33
inDegrees=yes

Units are S.I. units (second, meters, Newtons, ...)
Angles are in degrees.

endheader
time	ground_thorax_rot_x	ground_thorax_rot_y	ground_thorax_rot_z	ground_thorax_tx	ground_thorax_ty	ground_thorax_tz	clav_prot_r	clav_elev_r	scapula_abduction_r	scapula_elevation_r	scapula_upward_rot_r	scapula_winging_r	shoulder_elv_r	plane_of_elev_r	axial_rot_r	elbow_flexion_r	pro_sup_r	wrist_flex_r	wrist_dev_r	clav_prot_l	clav_elev_l	scapula_abduction_l	scapula_elevation_l	scapula_upward_rot_l	scapula_winging_l	shoulder_elv_l	plane_of_elev_l	axial_rot_l	elbow_flexion_l	pro_sup_l	wrist_flex_l	wrist_dev_l	
5.5400	-38.462157	-11.707060	17.622416	-248.465684	832.460198	11.406672	8.645790	-45.000000	37.800486	-45.000000	-45.000000	3135.398838	-465.410843	148.973665	-112.427377	1103.158307	120.797207	14.623976	3.460740	14.264800	37.694491	-35.035778	-45.000000	-45.000000	-2073.227443	984.179604	135.473440	-167.643008	2167.626476	27.009018	6.845916	-22.688887	
5.5500	-38.379289	-11.787145	17.788887	-248.427265	831.517630	11.149095	8.635292	-45.000000	37.776217	-45.000000	-45.000000	3135.394519	-465.514981	149.055878	-111.931691	1103.197382	120.939658	14.615219	3.453272	14.247650	37.638825	-34.918236	-45.000000	-45.000000	-2073.324606	984.141091	135.508473	-167.648138	2167.614711	27.205551	6.749716	-22.743121	
5.5600	-38.301334	-11.869503	17.938657	-248.339697	830.592768	10.898158	8.612034	-45.000000	37.757850	-45.000000	-45.000000	3135.394097	-465.607343	149.127029	-111.441316	1103.246093	121.112738	14.633594	3.415806	14.220152	37.585907	-34.788898	-45.000000	-45.000000	-2073.449971	984.121219	135.554485	-167.656587	2167.617312	27.420042	6.649734	-22.815099	
5.5700	-38.238633	-11.955106	18.075928	-248.129459	829.694972	10.660587	8.612350	-45.000000	37.738643	-45.000000	-45.000000	3135.399163	-465.695247	149.194453	-111.019557	1103.285159	121.360898	14.595729	3.445182	14.217240	37.556375	-34.711243	-45.000000	-45.000000	-2073.536517	984.085415	135.578600	-167.669626	2167.623392	27.680600	6.530250	-22.865886	
5.5800	-38.192088	-12.047240	18.193837	-247.812833	828.839744	10.436195	8.620156	-45.000000	37.724248	-45.000000	-45.000000	3135.408802	-465.772681	149.252981	-110.651667	1103.324365	121.680279	14.533707	3.503320	14.225505	37.539318	-34.665115	-45.000000	-45.000000	-2073.603726	984.048738	135.590142	-167.682587	2167.636924	27.983683	6.393636	-22.908978	
5.5900	-38.164612	-12.142634	18.287564	-247.399379	828.044088	10.224207	8.632924	-45.000000	37.713625	-45.000000	-45.000000	3135.423482	-465.837652	149.300067	-110.338427	1103.365471	122.072325	14.455040	3.581725	14.241988	37.537063	-34.646768	-45.000000	-45.000000	-2073.658991	984.018419	135.592855	-167.694155	2167.660811	28.329292	6.241900	-22.947175	
5.6000	-38.155512	-12.241876	18.357476	-246.923157	827.325552	10.020470	8.644615	-45.000000	37.709882	-45.000000	-45.000000	3135.440433	-465.890589	149.339638	-110.074659	1103.408275	122.526114	14.369887	3.667455	14.262189	37.539949	-34.650916	-45.000000	-45.000000	-2073.700780	983.994449	135.586025	-167.701804	2167.688616	28.707572	6.078576	-22.979634	
5.6100	-38.165984	-12.335417	18.394234	-246.425755	826.700027	9.818687	8.652100	-45.000000	37.710117	-45.000000	-45.000000	3135.458699	-465.931551	149.366148	-109.848488	1103.460596	123.027049	14.292851	3.741624	14.279645	37.549761	-34.663831	-45.000000	-45.000000	-2073.743538	983.986491	135.576761	-167.707472	2167.723787	29.103513	5.913157	-23.011768	
5.6200	-38.192449	-12.426313	18.407132	-245.941196	826.179652	9.611968	8.655916	-45.000000	37.715730	-45.000000	-45.000000	3135.476358	-465.963643	149.388734	-109.660152	1103.517344	123.567292	14.218801	3.808781	14.296764	37.559165	-34.688990	-45.000000	-45.000000	-2073.771652	983.983644	135.561842	-167.711337	2167.759329	29.500273	5.750731	-23.036138	
5.6300	-38.235536	-12.497336	18.379915	-245.492790	825.772249	9.394124	8.660969	-45.000000	37.722219	-45.000000	-45.000000	3135.491762	-465.987005	149.396276	-109.499550	1103.589808	124.143677	14.151956	3.861142	14.310626	37.576834	-34.717881	-45.000000	-45.000000	-2073.798591	983.996068	135.543949	-167.721813	2167.804560	29.879786	5.602168	-23.057962	
5.6400	-38.287247	-12.563026	18.331473	-245.091631	825.480729	9.160762	8.664120	-45.000000	37.733334	-45.000000	-45.000000	3135.504888	-466.000964	149.401037	-109.363100	1103.670162	124.765886	14.089293	3.902834	14.324000	37.591229	-34.752833	-45.000000	-45.000000	-2073.809045	984.010476	135.524104	-167.738534	2167.850711	30.224461	5.470801	-23.072281	
5.6500	-38.347889	-12.613690	18.250695	-244.737071	825.302707	8.910029	8.672210	-45.000000	37.746447	-45.000000	-45.000000	3135.516979	-466.010748	149.393959	-109.238167	1103.762200	125.441078	14.031923	3.932934	14.334474	37.610537	-34.789191	-45.000000	-45.000000	-2073.815272	984.034549	135.509204	-167.766382	2167.907827	30.515497	5.364334	-23.085015	
5.6600	-38.405125	-12.672847	18.170144	-244.418917	825.230188	8.642911	8.680208	-45.000000	37.764219	-45.000000	-45.000000	3135.527359	-466.010212	149.391757	-109.120982	1103.856951	126.182019	13.976752	3.957737	14.346125	37.620589	-34.827693	-45.000000	-45.000000	-2073.802809	984.052734	135.497802	-167.803113	2167.961558	30.737738	5.283068	-23.091718	
5.6700	-38.460258	-12.723940	18.073143	-244.120588	825.249900	8.362893	8.697815	-45.000000	37.782798	-45.000000	-45.000000	3135.537279	-466.006723	149.379571	-108.996554	1103.953526	126.997092	13.925404	3.978288	14.352141	37.634172	-34.863757	-45.000000	-45.000000	-2073.795254	984.079807	135.494697	-167.855214	2168.022003	30.878135	5.231710	-23.099745	
